<svg width="30" height="30" viewBox="0 0 30 30" fill="none" xmlns="http://www.w3.org/2000/svg">
<path fill-rule="evenodd" clip-rule="evenodd" d="M15 30C23.2843 30 30 23.2843 30 15C30 6.71573 23.2843 0 15 0C6.71573 0 0 6.71573 0 15C0 23.2843 6.71573 30 15 30Z" fill="#6B6B6B"/>
<path fill-rule="evenodd" clip-rule="evenodd" d="M10.9415 21.9116V12.7622H8.11361V21.9116H10.9415ZM10.9415 9.51911C10.9246 8.70033 10.3789 8.07692 9.49245 8.07692C8.60574 8.07692 8.02637 8.70033 8.02637 9.51911C8.02637 10.3201 8.5889 10.9615 9.45853 10.9615H9.47538C10.3789 10.9615 10.9415 10.3201 10.9415 9.51911ZM15.5549 21.9116V16.6987C15.5549 16.4197 15.5751 16.1407 15.6571 15.9418C15.8814 15.3841 16.3919 14.8068 17.249 14.8068C18.3719 14.8068 19.0761 15.4441 19.0761 16.6987V21.9116H21.923V16.5592C21.923 13.692 20.3924 12.3578 18.3509 12.3578C16.677 12.3578 15.9422 13.2937 15.5342 13.9307L15.5547 12.707H12.7127C12.7535 13.5829 12.7127 21.9116 12.7127 21.9116H15.5549Z" fill="#F1F1F1"/>
</svg>
