<svg width="90" height="87" viewBox="0 0 90 87" fill="none" xmlns="http://www.w3.org/2000/svg">
<path d="M23.96 53V24.6H29.48V48.16H43.96V53H23.96ZM47.3194 53V24.6H59.3594C60.666 24.6 61.866 24.8667 62.9594 25.4C64.0527 25.9333 64.9994 26.6533 65.7994 27.56C66.626 28.4667 67.266 29.48 67.7194 30.6C68.1727 31.72 68.3994 32.8667 68.3994 34.04C68.3994 35.64 68.026 37.16 67.2794 38.6C66.5327 40.04 65.506 41.2133 64.1994 42.12C62.8927 43.0267 61.346 43.48 59.5594 43.48H52.8394V53H47.3194ZM52.8394 38.64H59.2394C59.906 38.64 60.506 38.4533 61.0394 38.08C61.5727 37.7067 61.9994 37.1733 62.3194 36.48C62.6394 35.76 62.7994 34.9467 62.7994 34.04C62.7994 33.0533 62.6127 32.2133 62.2394 31.52C61.8927 30.8267 61.426 30.3067 60.8394 29.96C60.2794 29.6133 59.666 29.44 58.9994 29.44H52.8394V38.64Z" fill="#F1F1F1"/>
<rect x="21" y="67" width="49" height="5" fill="#00DAC0"/>
<rect x="2.5" y="2.5" width="85" height="82" stroke="#F1F1F1" stroke-width="5"/>
</svg>
