<?xml version="1.0" encoding="UTF-8" standalone="no"?>
<!-- Created with Inkscape (http://www.inkscape.org/) -->

<svg
   version="1.1"
   id="svg9"
   width="800"
   height="800"
   viewBox="0 0 800 800"
   sodipodi:docname="nodejs.svg"
   inkscape:version="1.2 (dc2aedaf03, 2022-05-15)"
   xmlns:inkscape="http://www.inkscape.org/namespaces/inkscape"
   xmlns:sodipodi="http://sodipodi.sourceforge.net/DTD/sodipodi-0.dtd"
   xmlns="http://www.w3.org/2000/svg"
   xmlns:svg="http://www.w3.org/2000/svg">
  <defs
     id="defs13">
    <clipPath
       clipPathUnits="userSpaceOnUse"
       id="clipPath25">
      <path
         d="M 0,600 H 600 V 0 H 0 Z"
         id="path23" />
    </clipPath>
    <clipPath
       clipPathUnits="userSpaceOnUse"
       id="clipPath61">
      <path
         d="m 238.756,373.131 -42.02,-24.254 c -1.572,-0.906 -2.539,-2.582 -2.539,-4.395 v 0 -48.548 c 0,-1.814 0.967,-3.489 2.537,-4.397 v 0 l 42.02,-24.274 c 1.571,-0.907 3.507,-0.907 5.079,0 v 0 l 42.029,24.274 c 1.571,0.908 2.538,2.583 2.538,4.397 v 0 48.546 c 0,1.815 -0.967,3.491 -2.539,4.397 v 0 l -42.03,24.254 c -0.785,0.454 -1.661,0.68 -2.538,0.68 v 0 c -0.876,0 -1.753,-0.226 -2.537,-0.68"
         id="path59" />
    </clipPath>
    <linearGradient
       x1="0"
       y1="0"
       x2="1"
       y2="0"
       gradientUnits="userSpaceOnUse"
       gradientTransform="matrix(94.203888,0,0,-94.203888,194.19629,320.19702)"
       spreadMethod="pad"
       id="linearGradient75">
      <stop
         style="stop-opacity:1;stop-color:#231f20"
         offset="0"
         id="stop67" />
      <stop
         style="stop-opacity:1;stop-color:#231f20"
         offset="0.00530134"
         id="stop69" />
      <stop
         style="stop-opacity:1;stop-color:#797b7d"
         offset="0.72538782"
         id="stop71" />
      <stop
         style="stop-opacity:1;stop-color:#797b7d"
         offset="1"
         id="stop73" />
    </linearGradient>
    <clipPath
       clipPathUnits="userSpaceOnUse"
       id="clipPath85">
      <path
         d="m 238.766,373.131 -42.03,-24.254 c -1.572,-0.906 -2.539,-2.582 -2.539,-4.397 v 0 -48.546 c 0,-1.814 0.967,-3.489 2.537,-4.397 v 0 l 42.031,-24.274 c 1.571,-0.907 3.506,-0.907 5.077,0 v 0 l 42.02,24.274 c 1.571,0.908 2.538,2.583 2.538,4.397 v 0 48.548 c 0,1.813 -0.967,3.489 -2.538,4.395 v 0 l -42.021,24.254 c -0.785,0.454 -1.661,0.68 -2.538,0.68 v 0 c -0.876,0 -1.752,-0.226 -2.537,-0.68"
         id="path83" />
    </clipPath>
    <clipPath
       clipPathUnits="userSpaceOnUse"
       id="clipPath93">
      <path
         d="m 195.182,373.659 h 91.752 V 266.59 h -91.752 z"
         id="path91" />
    </clipPath>
    <clipPath
       clipPathUnits="userSpaceOnUse"
       id="clipPath109">
      <path
         d="m 240.99,373.802 c -0.771,-0.048 -1.533,-0.272 -2.224,-0.671 v 0 l -41.629,-24.022 45.223,-82.385 c 0.473,0.112 0.935,0.286 1.373,0.539 v 0 l 41.93,24.274 c 1.569,0.908 2.337,2.583 2.337,4.397 v 0 0.19 l -45.36,77.493 c -0.455,0.127 -0.924,0.191 -1.392,0.191 v 0 c -0.086,0 -0.172,-0.002 -0.258,-0.006"
         id="path107" />
    </clipPath>
    <linearGradient
       x1="0"
       y1="0"
       x2="1"
       y2="0"
       gradientUnits="userSpaceOnUse"
       gradientTransform="matrix(97.177795,0,0,-97.177795,193.54504,320.26605)"
       spreadMethod="pad"
       id="linearGradient123">
      <stop
         style="stop-opacity:1;stop-color:#797b7d"
         offset="0"
         id="stop115" />
      <stop
         style="stop-opacity:1;stop-color:#797b7d"
         offset="0.27461227"
         id="stop117" />
      <stop
         style="stop-opacity:1;stop-color:#231f20"
         offset="0.994699"
         id="stop119" />
      <stop
         style="stop-opacity:1;stop-color:#231f20"
         offset="1"
         id="stop121" />
    </linearGradient>
  </defs>
  <sodipodi:namedview
     id="namedview11"
     pagecolor="#ffffff"
     bordercolor="#000000"
     borderopacity="0.25"
     inkscape:showpageshadow="2"
     inkscape:pageopacity="0.0"
     inkscape:pagecheckerboard="0"
     inkscape:deskcolor="#d1d1d1"
     showgrid="false"
     inkscape:zoom="0.6275"
     inkscape:cx="400"
     inkscape:cy="401.59363"
     inkscape:window-width="1360"
     inkscape:window-height="705"
     inkscape:window-x="1358"
     inkscape:window-y="-8"
     inkscape:window-maximized="1"
     inkscape:current-layer="g17">
    <inkscape:page
       x="0"
       y="0"
       id="page15"
       width="800"
       height="800" />
  </sodipodi:namedview>
  <g
     id="g17"
     inkscape:groupmode="layer"
     inkscape:label="Page 1"
     transform="matrix(1.3333333,0,0,-1.3333333,0,800)">
    <g
       id="g19">
      <g
         id="g21"
         clip-path="url(#clipPath25)">
        <g
           id="g27"
           transform="translate(296.6858,164.7731)">
          <path
             d="m 0,0 c -1.46,0 -2.913,0.382 -4.19,1.121 l -13.34,7.893 c -1.991,1.114 -1.018,1.509 -0.362,1.738 2.658,0.922 3.195,1.135 6.032,2.744 0.295,0.166 0.687,0.103 0.992,-0.076 L -0.62,7.335 c 0.371,-0.206 0.896,-0.206 1.237,0 l 39.954,23.061 c 0.371,0.212 0.61,0.64 0.61,1.081 v 46.108 c 0,0.451 -0.239,0.872 -0.62,1.101 L 0.624,101.727 c -0.369,0.215 -0.859,0.215 -1.231,0 L -40.534,78.679 c -0.388,-0.222 -0.634,-0.656 -0.634,-1.094 V 31.477 c 0,-0.441 0.246,-0.859 0.631,-1.068 l 10.944,-6.324 c 5.939,-2.969 9.575,0.528 9.575,4.041 V 73.65 c 0,0.644 0.517,1.151 1.161,1.151 h 5.066 c 0.634,0 1.158,-0.507 1.158,-1.151 V 28.126 c 0,-7.925 -4.316,-12.47 -11.831,-12.47 -2.309,0 -4.127,0 -9.203,2.501 l -10.476,6.031 c -2.588,1.496 -4.191,4.293 -4.191,7.289 v 46.108 c 0,2.995 1.603,5.792 4.191,7.282 l 39.953,23.087 c 2.528,1.43 5.889,1.43 8.397,0 l 39.95,-23.087 c 2.588,-1.496 4.197,-4.287 4.197,-7.282 V 31.477 c 0,-2.996 -1.609,-5.782 -4.197,-7.289 L 4.207,1.121 C 2.929,0.382 1.48,0 0,0"
             style="fill:#689f63;fill-opacity:1;fill-rule:nonzero;stroke:none"
             id="path29" />
        </g>
        <g
           id="g31"
           transform="translate(309.0271,196.5389)">
          <path
             d="m 0,0 c -17.483,0 -21.146,8.025 -21.146,14.756 0,0.641 0.514,1.152 1.155,1.152 h 5.165 c 0.577,0 1.058,-0.415 1.148,-0.979 0.78,-5.258 3.105,-7.912 13.678,-7.912 8.417,0 12,1.904 12,6.369 0,2.575 -1.016,4.486 -14.096,5.766 -10.932,1.082 -17.693,3.497 -17.693,12.242 0,8.062 6.794,12.869 18.187,12.869 12.799,0 19.132,-4.442 19.935,-13.974 0.03,-0.328 -0.086,-0.643 -0.305,-0.889 -0.219,-0.229 -0.524,-0.368 -0.846,-0.368 h -5.185 c -0.538,0 -1.013,0.382 -1.122,0.902 -1.244,5.534 -4.27,7.302 -12.477,7.302 -9.19,0 -10.258,-3.201 -10.258,-5.6 0,-2.906 1.26,-3.752 13.668,-5.394 C 14.086,24.619 19.919,22.321 19.919,13.691 19.919,4.986 12.66,0 0,0"
             style="fill:#689f63;fill-opacity:1;fill-rule:nonzero;stroke:none"
             id="path33" />
        </g>
        <g
           id="g35"
           transform="translate(357.6771,245.4249)">
          <path
             d="m 0,0 h 1.344 c 1.098,0 1.303,0.773 1.303,1.221 0,1.183 -0.816,1.183 -1.264,1.183 H 0 Z m -1.632,3.789 h 2.976 c 1.018,0 3.015,0 3.015,-2.283 0,-1.589 -1.018,-1.914 -1.632,-2.118 1.184,-0.081 1.264,-0.856 1.426,-1.956 0.083,-0.691 0.206,-1.874 0.449,-2.28 H 2.77 C 2.727,-4.442 2.442,-2.241 2.442,-2.12 2.322,-1.63 2.156,-1.387 1.546,-1.387 H 0.04 v -3.461 h -1.672 z m -3.563,-4.298 c 0,-3.586 2.892,-6.479 6.436,-6.479 3.586,0 6.479,2.954 6.479,6.479 0,3.584 -2.933,6.436 -6.479,6.436 -3.504,0 -6.436,-2.81 -6.436,-6.436 M 8.961,-0.531 c 0,-4.236 -3.464,-7.7 -7.7,-7.7 -4.197,0 -7.7,3.422 -7.7,7.7 0,4.36 3.586,7.702 7.7,7.702 4.157,0 7.7,-3.342 7.7,-7.702"
             style="fill:#689f63;fill-opacity:1;fill-rule:nonzero;stroke:none"
             id="path37" />
        </g>
        <g
           id="g39"
           transform="translate(172.9639,345.1672)">
          <path
             d="m 0,0 c 0,1.841 -0.969,3.533 -2.558,4.446 l -42.359,24.377 c -0.716,0.421 -1.519,0.641 -2.332,0.674 h -0.438 c -0.809,-0.033 -1.612,-0.253 -2.339,-0.674 L -92.385,4.446 C -93.964,3.533 -94.946,1.841 -94.946,0 l 0.093,-65.641 c 0,-0.913 0.474,-1.762 1.278,-2.21 0.786,-0.471 1.758,-0.471 2.541,0 l 25.174,14.415 c 1.592,0.946 2.561,2.614 2.561,4.439 v 30.667 c 0,1.828 0.968,3.521 2.554,4.429 l 10.719,6.174 c 0.8,0.462 1.672,0.687 2.565,0.687 0.872,0 1.768,-0.225 2.544,-0.687 l 10.716,-6.174 c 1.586,-0.908 2.558,-2.601 2.558,-4.429 v -30.667 c 0,-1.825 0.982,-3.504 2.564,-4.439 l 25.167,-14.415 c 0.79,-0.471 1.776,-0.471 2.558,0 0.78,0.448 1.271,1.297 1.271,2.21 z"
             style="fill:#333333;fill-opacity:1;fill-rule:evenodd;stroke:none"
             id="path41" />
        </g>
        <g
           id="g43"
           transform="translate(372.849,310.9881)">
          <path
             d="m 0,0 c 0,-0.456 -0.244,-0.879 -0.64,-1.106 l -14.55,-8.387 c -0.394,-0.227 -0.882,-0.227 -1.277,0 l -14.549,8.387 c -0.397,0.227 -0.64,0.65 -0.64,1.106 v 16.8 c 0,0.456 0.243,0.879 0.639,1.108 l 14.549,8.404 c 0.396,0.229 0.884,0.229 1.28,0 L -0.639,17.908 C -0.244,17.679 0,17.256 0,16.8 Z m 3.932,124.414 c -0.793,0.441 -1.761,0.431 -2.544,-0.028 -0.781,-0.46 -1.262,-1.299 -1.262,-2.206 V 57.173 c 0,-0.638 -0.342,-1.23 -0.894,-1.55 -0.554,-0.321 -1.237,-0.321 -1.791,0 l -10.61,6.112 c -1.583,0.912 -3.53,0.911 -5.112,-0.002 L -60.657,37.278 c -1.584,-0.914 -2.559,-2.603 -2.559,-4.431 v -48.92 c 0,-1.829 0.975,-3.517 2.558,-4.433 l 42.373,-24.474 c 1.584,-0.914 3.535,-0.914 5.119,0 l 42.381,24.474 c 1.582,0.916 2.558,2.604 2.558,4.433 v 121.947 c 0,1.854 -1.004,3.565 -2.625,4.469 z"
             style="fill:#333333;fill-opacity:1;fill-rule:evenodd;stroke:none"
             id="path45" />
        </g>
        <g
           id="g47"
           transform="translate(517.8843,328.2278)">
          <path
             d="m 0,0 c 1.576,0.916 2.546,2.601 2.546,4.424 v 11.855 c 0,1.823 -0.97,3.51 -2.548,4.426 L -42.105,45.15 c -1.584,0.921 -3.54,0.923 -5.127,0.007 L -89.593,20.702 c -1.582,-0.914 -2.558,-2.603 -2.558,-4.431 v -48.908 c 0,-1.839 0.988,-3.536 2.585,-4.445 l 42.097,-23.988 c 1.552,-0.886 3.455,-0.896 5.017,-0.028 l 25.463,14.153 c 0.807,0.449 1.31,1.297 1.315,2.219 0.007,0.923 -0.484,1.777 -1.284,2.236 l -42.629,24.467 c -0.796,0.456 -1.285,1.304 -1.285,2.22 v 15.327 c 0,0.914 0.487,1.76 1.28,2.216 l 13.267,7.649 c 0.79,0.456 1.765,0.456 2.554,0 L -30.497,1.74 c 0.793,-0.456 1.281,-1.302 1.281,-2.216 v -12.059 c 0,-0.916 0.489,-1.762 1.282,-2.218 0.793,-0.458 1.77,-0.455 2.561,0.005 z"
             style="fill:#333333;fill-opacity:1;fill-rule:evenodd;stroke:none"
             id="path49" />
        </g>
        <g
           id="g51"
           transform="translate(472.5912,330.5186)">
          <path
             d="M 0,0 C 0.304,0.176 0.678,0.176 0.982,0 L 9.113,-4.691 C 9.417,-4.867 9.604,-5.19 9.604,-5.542 v -9.389 c 0,-0.351 -0.187,-0.675 -0.491,-0.851 l -8.131,-4.691 c -0.304,-0.175 -0.678,-0.175 -0.982,0 l -8.125,4.691 c -0.303,0.176 -0.491,0.5 -0.491,0.851 v 9.389 c 0,0.352 0.188,0.675 0.491,0.851 z"
             style="fill:#689f63;fill-opacity:1;fill-rule:evenodd;stroke:none"
             id="path53" />
        </g>
      </g>
    </g>
    <g
       id="g55">
      <g
         id="g57"
         clip-path="url(#clipPath61)">
        <g
           id="g63">
          <g
             id="g65">
            <path
               d="m 238.756,373.131 -42.02,-24.254 c -1.572,-0.906 -2.539,-2.582 -2.539,-4.395 v 0 -48.548 c 0,-1.814 0.967,-3.489 2.537,-4.397 v 0 l 42.02,-24.274 c 1.571,-0.907 3.507,-0.907 5.079,0 v 0 l 42.029,24.274 c 1.571,0.908 2.538,2.583 2.538,4.397 v 0 48.546 c 0,1.815 -0.967,3.491 -2.539,4.397 v 0 l -42.03,24.254 c -0.785,0.454 -1.661,0.68 -2.538,0.68 v 0 c -0.876,0 -1.753,-0.226 -2.537,-0.68"
               style="fill:url(#linearGradient75);stroke:none"
               id="path77" />
          </g>
        </g>
      </g>
    </g>
    <g
       id="g79">
      <g
         id="g81"
         clip-path="url(#clipPath85)">
        <g
           id="g87">
          <g
             id="g89" />
          <g
             id="g101">
            <g
               clip-path="url(#clipPath93)"
               opacity="0.660004"
               id="g99">
              <g
                 transform="translate(285.6486,348.877)"
                 id="g97">
                <path
                   d="m 0,0 -41.843,24.255 c -0.419,0.242 -0.867,0.414 -1.327,0.527 l -47.296,-80.908 c 0.398,-0.479 0.878,-0.896 1.428,-1.214 l 42.093,-24.274 c 1.255,-0.724 2.707,-0.86 4.043,-0.428 L 1.286,-1.128 C 0.94,-0.686 0.517,-0.298 0,0"
                   style="fill:#b4b4b4;fill-opacity:1;fill-rule:nonzero;stroke:none"
                   id="path95" />
              </g>
            </g>
          </g>
        </g>
      </g>
    </g>
    <g
       id="g103">
      <g
         id="g105"
         clip-path="url(#clipPath109)">
        <g
           id="g111">
          <g
             id="g113">
            <path
               d="m 240.99,373.802 c -0.771,-0.048 -1.533,-0.272 -2.224,-0.671 v 0 l -41.629,-24.022 45.223,-82.385 c 0.473,0.112 0.935,0.286 1.373,0.539 v 0 l 41.93,24.274 c 1.569,0.908 2.337,2.583 2.337,4.397 v 0 0.19 l -45.36,77.493 c -0.455,0.127 -0.924,0.191 -1.392,0.191 v 0 c -0.086,0 -0.172,-0.002 -0.258,-0.006"
               style="fill:url(#linearGradient123);stroke:none"
               id="path125" />
          </g>
        </g>
      </g>
    </g>
  </g>
</svg>
